<svg xmlns="http://www.w3.org/2000/svg" viewBox="0 0 1280 640" width="1280" height="640">
  <defs>
    <linearGradient id="bg" x1="0%" y1="0%" x2="100%" y2="100%">
      <stop offset="0%" style="stop-color:#1a1a2e"/>
      <stop offset="50%" style="stop-color:#16213e"/>
      <stop offset="100%" style="stop-color:#0f3460"/>
    </linearGradient>
    <linearGradient id="bolt" x1="0%" y1="0%" x2="100%" y2="100%">
      <stop offset="0%" style="stop-color:#FFD700"/>
      <stop offset="100%" style="stop-color:#FFA500"/>
    </linearGradient>
    <filter id="glow">
      <feGaussianBlur stdDeviation="8" result="blur"/>
      <feMerge>
        <feMergeNode in="blur"/>
        <feMergeNode in="SourceGraphic"/>
      </feMerge>
    </filter>
  </defs>

  <!-- Background -->
  <rect width="1280" height="640" rx="0" fill="url(#bg)"/>

  <!-- Dot pattern overlay -->
  <g opacity="0.05">
    <circle cx="100" cy="100" r="2" fill="white"/>
    <circle cx="200" cy="100" r="2" fill="white"/>
    <circle cx="300" cy="100" r="2" fill="white"/>
    <circle cx="400" cy="100" r="2" fill="white"/>
    <circle cx="500" cy="100" r="2" fill="white"/>
    <circle cx="600" cy="100" r="2" fill="white"/>
    <circle cx="700" cy="100" r="2" fill="white"/>
    <circle cx="800" cy="100" r="2" fill="white"/>
    <circle cx="900" cy="100" r="2" fill="white"/>
    <circle cx="1000" cy="100" r="2" fill="white"/>
    <circle cx="1100" cy="100" r="2" fill="white"/>
    <circle cx="1200" cy="100" r="2" fill="white"/>
    <circle cx="100" cy="200" r="2" fill="white"/>
    <circle cx="200" cy="200" r="2" fill="white"/>
    <circle cx="300" cy="200" r="2" fill="white"/>
    <circle cx="400" cy="200" r="2" fill="white"/>
    <circle cx="500" cy="200" r="2" fill="white"/>
    <circle cx="600" cy="200" r="2" fill="white"/>
    <circle cx="700" cy="200" r="2" fill="white"/>
    <circle cx="800" cy="200" r="2" fill="white"/>
    <circle cx="900" cy="200" r="2" fill="white"/>
    <circle cx="1000" cy="200" r="2" fill="white"/>
    <circle cx="1100" cy="200" r="2" fill="white"/>
    <circle cx="1200" cy="200" r="2" fill="white"/>
    <circle cx="100" cy="300" r="2" fill="white"/>
    <circle cx="200" cy="300" r="2" fill="white"/>
    <circle cx="300" cy="300" r="2" fill="white"/>
    <circle cx="400" cy="300" r="2" fill="white"/>
    <circle cx="500" cy="300" r="2" fill="white"/>
    <circle cx="600" cy="300" r="2" fill="white"/>
    <circle cx="700" cy="300" r="2" fill="white"/>
    <circle cx="800" cy="300" r="2" fill="white"/>
    <circle cx="900" cy="300" r="2" fill="white"/>
    <circle cx="1000" cy="300" r="2" fill="white"/>
    <circle cx="1100" cy="300" r="2" fill="white"/>
    <circle cx="1200" cy="300" r="2" fill="white"/>
    <circle cx="100" cy="400" r="2" fill="white"/>
    <circle cx="200" cy="400" r="2" fill="white"/>
    <circle cx="300" cy="400" r="2" fill="white"/>
    <circle cx="400" cy="400" r="2" fill="white"/>
    <circle cx="500" cy="400" r="2" fill="white"/>
    <circle cx="600" cy="400" r="2" fill="white"/>
    <circle cx="700" cy="400" r="2" fill="white"/>
    <circle cx="800" cy="400" r="2" fill="white"/>
    <circle cx="900" cy="400" r="2" fill="white"/>
    <circle cx="1000" cy="400" r="2" fill="white"/>
    <circle cx="1100" cy="400" r="2" fill="white"/>
    <circle cx="1200" cy="400" r="2" fill="white"/>
    <circle cx="100" cy="500" r="2" fill="white"/>
    <circle cx="200" cy="500" r="2" fill="white"/>
    <circle cx="300" cy="500" r="2" fill="white"/>
    <circle cx="400" cy="500" r="2" fill="white"/>
    <circle cx="500" cy="500" r="2" fill="white"/>
    <circle cx="600" cy="500" r="2" fill="white"/>
    <circle cx="700" cy="500" r="2" fill="white"/>
    <circle cx="800" cy="500" r="2" fill="white"/>
    <circle cx="900" cy="500" r="2" fill="white"/>
    <circle cx="1000" cy="500" r="2" fill="white"/>
    <circle cx="1100" cy="500" r="2" fill="white"/>
    <circle cx="1200" cy="500" r="2" fill="white"/>
    <circle cx="100" cy="600" r="2" fill="white"/>
    <circle cx="200" cy="600" r="2" fill="white"/>
    <circle cx="300" cy="600" r="2" fill="white"/>
    <circle cx="400" cy="600" r="2" fill="white"/>
    <circle cx="500" cy="600" r="2" fill="white"/>
    <circle cx="600" cy="600" r="2" fill="white"/>
    <circle cx="700" cy="600" r="2" fill="white"/>
    <circle cx="800" cy="600" r="2" fill="white"/>
    <circle cx="900" cy="600" r="2" fill="white"/>
    <circle cx="1000" cy="600" r="2" fill="white"/>
    <circle cx="1100" cy="600" r="2" fill="white"/>
    <circle cx="1200" cy="600" r="2" fill="white"/>
  </g>

  <!-- Large lightning bolt -->
  <path d="M640 80 L520 300 L600 300 L560 520 L760 260 L680 260 Z" fill="url(#bolt)" filter="url(#glow)" opacity="0.3"/>

  <!-- Main bolt (center) -->
  <path d="M640 120 L560 300 L620 300 L590 460 L720 280 L660 280 Z" fill="url(#bolt)" filter="url(#glow)"/>

  <!-- Title -->
  <text x="640" y="560" fill="white" font-family="Arial, sans-serif" font-size="72" font-weight="bold" text-anchor="middle" filter="url(#glow)">BlitzPrep</text>

  <!-- Subtitle -->
  <text x="640" y="610" fill="#aaa" font-family="Arial, sans-serif" font-size="28" text-anchor="middle">Hızlı İngilizce, Güçlü Başlangıç</text>
</svg>
